<svg width="24" height="24" viewBox="0 0 24 24" fill="none" xmlns="http://www.w3.org/2000/svg">
<path fill-rule="evenodd" clip-rule="evenodd" d="M13.1429 17.4286H18.8571V16.2857H13.1429V17.4286ZM9.71429 12.8571H18.8571V11.7143H9.71429V12.8571ZM15.4286 8.28571H18.8571V7.14286H15.4286V8.28571ZM20 15.7143V18C20 18.3125 19.7411 18.5714 19.4286 18.5714H4.57143C4.25893 18.5714 4 18.3125 4 18V15.7143C4 15.4018 4.25893 15.1429 4.57143 15.1429H19.4286C19.7411 15.1429 20 15.4018 20 15.7143ZM20 11.1429V13.4286C20 13.7411 19.7411 14 19.4286 14H4.57143C4.25893 14 4 13.7411 4 13.4286V11.1429C4 10.8304 4.25893 10.5714 4.57143 10.5714H19.4286C19.7411 10.5714 20 10.8304 20 11.1429ZM20 6.57143V8.85714C20 9.16964 19.7411 9.42857 19.4286 9.42857H4.57143C4.25893 9.42857 4 9.16964 4 8.85714V6.57143C4 6.25893 4.25893 6 4.57143 6H19.4286C19.7411 6 20 6.25893 20 6.57143Z" fill="#BDBDBD"/>
</svg>
