<svg width="24" height="24" viewBox="0 0 24 24" fill="none" xmlns="http://www.w3.org/2000/svg">
<path fill-rule="evenodd" clip-rule="evenodd" d="M13.3333 8.33333V13C13.3333 13.1875 13.1875 13.3333 13 13.3333H9.66667C9.47917 13.3333 9.33333 13.1875 9.33333 13V12.3333C9.33333 12.1458 9.47917 12 9.66667 12H12V8.33333C12 8.14583 12.1458 8 12.3333 8H13C13.1875 8 13.3333 8.14583 13.3333 8.33333ZM17.6667 12C17.6667 8.875 15.125 6.33333 12 6.33333C8.875 6.33333 6.33333 8.875 6.33333 12C6.33333 15.125 8.875 17.6667 12 17.6667C15.125 17.6667 17.6667 15.125 17.6667 12ZM20 12C20 16.4167 16.4167 20 12 20C7.58333 20 4 16.4167 4 12C4 7.58333 7.58333 4 12 4C16.4167 4 20 7.58333 20 12Z" fill="#BDBDBD"/>
</svg>
