<svg width="24" height="24" viewBox="0 0 24 24" fill="none" xmlns="http://www.w3.org/2000/svg">
<path fill-rule="evenodd" clip-rule="evenodd" d="M11.7143 4.57143C11.7143 4.25893 11.4554 4 11.1429 4C10.8304 4 10.5714 4.25893 10.5714 4.57143V8.28571C10.5714 8.59821 10.3125 8.85714 10 8.85714C9.6875 8.85714 9.42857 8.59821 9.42857 8.28571V4.57143C9.42857 4.25893 9.16964 4 8.85714 4C8.54464 4 8.28571 4.25893 8.28571 4.57143V8.28571C8.28571 8.59821 8.02679 8.85714 7.71429 8.85714C7.40179 8.85714 7.14286 8.59821 7.14286 8.28571V4.57143C7.14286 4.25893 6.88393 4 6.57143 4C6.25893 4 6 4.25893 6 4.57143V10.2857C6 11.0089 6.46429 11.6607 7.14286 11.9018V18.8571C7.14286 19.4821 7.66071 20 8.28571 20H9.42857C10.0536 20 10.5714 19.4821 10.5714 18.8571V11.9018C11.25 11.6607 11.7143 11.0089 11.7143 10.2857V4.57143ZM18.5714 4.57143C18.5714 4.25893 18.3125 4 18 4H15.7143C14.1429 4 12.8571 5.28571 12.8571 6.85714V14C12.8571 14.1518 12.9911 14.2857 13.1429 14.2857H15.1429V18.8571C15.1429 19.4821 15.6607 20 16.2857 20H17.4286C18.0536 20 18.5714 19.4821 18.5714 18.8571V4.57143Z" fill="#BDBDBD"/>
</svg>
