<svg width="30" height="30" viewBox="0 0 30 30" fill="none" xmlns="http://www.w3.org/2000/svg">
<path fill-rule="evenodd" clip-rule="evenodd" d="M23.0383 16.6194V23.3523C23.0383 23.8432 22.6336 24.25 22.1452 24.25H16.7863V18.8637H13.2137V24.25H7.85484C7.3664 24.25 6.96169 23.8432 6.96169 23.3523V16.6194C6.96169 16.5913 6.97565 16.5633 6.97565 16.5352L15 9.88647L23.0243 16.5352C23.0383 16.5633 23.0383 16.5913 23.0383 16.6194ZM26.1504 15.6515L25.2851 16.6895C25.2153 16.7737 25.1037 16.8298 24.9921 16.8438H24.9502C24.8385 16.8438 24.7409 16.8157 24.6571 16.7456L15 8.6521L5.34287 16.7456C5.24518 16.8157 5.13354 16.8578 5.00794 16.8438C4.8963 16.8298 4.78465 16.7737 4.71488 16.6895L3.84964 15.6515C3.69613 15.4692 3.72404 15.1746 3.90547 15.0203L13.9394 6.61821C14.5255 6.12726 15.4745 6.12726 16.0606 6.61821L19.4657 9.47969V6.74445C19.4657 6.49196 19.6611 6.29559 19.9123 6.29559H22.5917C22.8429 6.29559 23.0383 6.49196 23.0383 6.74445V12.4674L26.0945 15.0203C26.276 15.1746 26.3039 15.4692 26.1504 15.6515Z" fill="#AEAEAE"/>
</svg>
