<svg width="30" height="30" viewBox="0 0 30 30" fill="none" xmlns="http://www.w3.org/2000/svg">
<path fill-rule="evenodd" clip-rule="evenodd" d="M26.1765 22.4561C26.1765 24.8291 24.5521 26.25 22.1608 26.25H9.01571C6.62433 26.25 5 24.8291 5 22.4561C5 19.1455 5.79713 14.0625 10.2039 14.0625C10.6701 14.0625 12.6404 16.0986 15.5882 16.0986C18.5361 16.0986 20.5064 14.0625 20.9726 14.0625C25.3793 14.0625 26.1765 19.1455 26.1765 22.4561ZM21.3636 9.375C21.3636 12.4805 18.7767 15 15.5882 15C12.3997 15 9.81282 12.4805 9.81282 9.375C9.81282 6.26953 12.3997 3.75 15.5882 3.75C18.7767 3.75 21.3636 6.26953 21.3636 9.375Z" fill="#AEAEAE"/>
</svg>
