<svg width="30" height="30" viewBox="0 0 30 30" fill="none" xmlns="http://www.w3.org/2000/svg">
<path fill-rule="evenodd" clip-rule="evenodd" d="M14.2857 4.55357C14.2857 4.11412 13.9216 3.75 13.4821 3.75C13.0427 3.75 12.6786 4.11412 12.6786 4.55357V9.77679C12.6786 10.2162 12.3145 10.5804 11.875 10.5804C11.4355 10.5804 11.0714 10.2162 11.0714 9.77679V4.55357C11.0714 4.11412 10.7073 3.75 10.2679 3.75C9.8284 3.75 9.46429 4.11412 9.46429 4.55357V9.77679C9.46429 10.2162 9.10017 10.5804 8.66071 10.5804C8.22126 10.5804 7.85714 10.2162 7.85714 9.77679V4.55357C7.85714 4.11412 7.49302 3.75 7.05357 3.75C6.61412 3.75 6.25 4.11412 6.25 4.55357V12.5893C6.25 13.6063 6.9029 14.5229 7.85714 14.8619V24.6429C7.85714 25.5218 8.58538 26.25 9.46429 26.25H11.0714C11.9503 26.25 12.6786 25.5218 12.6786 24.6429V14.8619C13.6328 14.5229 14.2857 13.6063 14.2857 12.5893V4.55357ZM23.9286 4.55357C23.9286 4.11412 23.5645 3.75 23.125 3.75H19.9107C17.7009 3.75 15.8929 5.55804 15.8929 7.76786V17.8125C15.8929 18.0259 16.0812 18.2143 16.2947 18.2143H19.1072V24.6429C19.1072 25.5218 19.8354 26.25 20.7143 26.25H22.3214C23.2003 26.25 23.9286 25.5218 23.9286 24.6429V4.55357Z" fill="#FF8C2B"/>
</svg>
